HIERARCHY
ROOT Hips
{
	OFFSET 0.000000 89.005402 0.000000
	CHANNELS 6 Xposition Yposition Zposition Xrotation Yrotation Zrotation
	JOINT Spine
	{
		OFFSET 0.116900 10.681000 0.373400
		CHANNELS 3 Xrotation Yrotation Zrotation
		JOINT Spine1
		{
			OFFSET 0.000000 13.840401 0.053500
			CHANNELS 3 Xrotation Yrotation Zrotation
			JOINT Spine2
			{
				OFFSET 0.000000 14.712700 -0.366200
				CHANNELS 3 Xrotation Yrotation Zrotation
				JOINT Neck
				{
					OFFSET 0.000000 35.415497 -3.314200
					CHANNELS 3 Xrotation Yrotation Zrotation
					JOINT Head
					{
						OFFSET 0.000000 16.899200 1.218300
						CHANNELS 3 Xrotation Yrotation Zrotation
						JOINT HeadTop_End
						{
							OFFSET 0.000000 22.206207 2.192500
							CHANNELS 3 Xrotation Yrotation Zrotation
							End Site
							{
								OFFSET 0.000000 22.314178 0.000000
							}
						}
					}
				}
				JOINT LeftShoulder
				{
					OFFSET 12.896400 26.716293 -4.548400
					CHANNELS 3 Xrotation Yrotation Zrotation
					JOINT LeftArm
					{
						OFFSET 19.027000 -4.857010 -1.718400
						CHANNELS 3 Xrotation Yrotation Zrotation
						JOINT LeftForeArm
						{
							OFFSET 24.179897 0.000000 0.000000
							CHANNELS 3 Xrotation Yrotation Zrotation
							JOINT LeftHand
							{
								OFFSET 27.156403 0.000000 0.000000
								CHANNELS 3 Xrotation Yrotation Zrotation
								JOINT LeftHandIndex1
								{
									OFFSET 16.441200 0.000000 0.000000
									CHANNELS 3 Xrotation Yrotation Zrotation
									JOINT LeftHandIndex2
									{
										OFFSET 4.821899 0.000000 0.000000
										CHANNELS 3 Xrotation Yrotation Zrotation
										JOINT LeftHandIndex3
										{
											OFFSET 6.386497 0.000000 0.000000
											CHANNELS 3 Xrotation Yrotation Zrotation
											JOINT LeftHandIndex4
											{
												OFFSET 5.188988 0.000000 0.000000
												CHANNELS 3 Xrotation Yrotation Zrotation
												End Site
												{
													OFFSET -0.178703 5.185913 0.000177
												}
											}
										}
									}
								}
								JOINT LeftHandThumb1
								{
									OFFSET 6.534897 -5.032593 5.900300
									CHANNELS 3 Xrotation Yrotation Zrotation
									JOINT LeftHandThumb2
									{
										OFFSET 3.818176 -2.204422 2.204423
										CHANNELS 3 Xrotation Yrotation Zrotation
										JOINT LeftHandThumb3
										{
											OFFSET 3.252098 -1.877594 1.877601
											CHANNELS 3 Xrotation Yrotation Zrotation
											JOINT LeftHandThumb4
											{
												OFFSET 5.251778 -3.032120 3.032117
												CHANNELS 3 Xrotation Yrotation Zrotation
												End Site
												{
													OFFSET 0.000023 6.780014 0.000000
												}
											}
										}
									}
								}
							}
						}
					}
				}
				JOINT RightShoulder
				{
					OFFSET -12.896300 26.716293 -4.548400
					CHANNELS 3 Xrotation Yrotation Zrotation
					JOINT RightArm
					{
						OFFSET -19.027000 -4.857010 -1.718400
						CHANNELS 3 Xrotation Yrotation Zrotation
						JOINT RightForeArm
						{
							OFFSET -24.179897 0.000000 0.000000
							CHANNELS 3 Xrotation Yrotation Zrotation
							JOINT RightHand
							{
								OFFSET -27.156403 0.000000 0.000000
								CHANNELS 3 Xrotation Yrotation Zrotation
								JOINT RightHandThumb1
								{
									OFFSET -6.591202 -4.852203 5.988100
									CHANNELS 3 Xrotation Yrotation Zrotation
									JOINT RightHandThumb2
									{
										OFFSET -3.818176 -2.204422 2.204423
										CHANNELS 3 Xrotation Yrotation Zrotation
										JOINT RightHandThumb3
										{
											OFFSET -3.252098 -1.877594 1.877601
											CHANNELS 3 Xrotation Yrotation Zrotation
											JOINT RightHandThumb4
											{
												OFFSET -5.251778 -3.032120 3.032117
												CHANNELS 3 Xrotation Yrotation Zrotation
												End Site
												{
													OFFSET -0.000023 6.780014 0.000000
												}
											}
										}
									}
								}
								JOINT RightHandIndex1
								{
									OFFSET -16.029404 0.000000 0.000000
									CHANNELS 3 Xrotation Yrotation Zrotation
									JOINT RightHandIndex2
									{
										OFFSET -5.213303 0.000000 0.000000
										CHANNELS 3 Xrotation Yrotation Zrotation
										JOINT RightHandIndex3
										{
											OFFSET -6.386528 0.000000 0.000000
											CHANNELS 3 Xrotation Yrotation Zrotation
											JOINT RightHandIndex4
											{
												OFFSET -5.189026 0.000000 0.000000
												CHANNELS 3 Xrotation Yrotation Zrotation
												End Site
												{
													OFFSET 0.236702 5.183624 0.001972
												}
											}
										}
									}
								}
							}
						}
					}
				}
			}
		}
	}
	JOINT LeftUpLeg
	{
		OFFSET 14.073000 -7.904099 -1.463000
		CHANNELS 3 Xrotation Yrotation Zrotation
		JOINT LeftLeg
		{
			OFFSET -0.109806 -34.073280 4.093200
			CHANNELS 3 Xrotation Yrotation Zrotation
			JOINT LeftFoot
			{
				OFFSET 0.109806 -29.899420 -6.319000
				CHANNELS 3 Xrotation Yrotation Zrotation
				JOINT LeftToeBase
				{
					OFFSET 1.551100 -14.988700 20.535801
					CHANNELS 3 Xrotation Yrotation Zrotation
					JOINT LeftToe_End
					{
						OFFSET 0.221200 0.570800 13.248301
						CHANNELS 3 Xrotation Yrotation Zrotation
						End Site
						{
							OFFSET 0.000000 13.262435 0.000000
						}
					}
				}
			}
		}
	}
	JOINT RightUpLeg
	{
		OFFSET -13.839300 -7.904099 -1.463000
		CHANNELS 3 Xrotation Yrotation Zrotation
		JOINT RightLeg
		{
			OFFSET 0.109694 -34.073219 4.093300
			CHANNELS 3 Xrotation Yrotation Zrotation
			JOINT RightFoot
			{
				OFFSET -0.109694 -29.899384 -6.319200
				CHANNELS 3 Xrotation Yrotation Zrotation
				JOINT RightToeBase
				{
					OFFSET -1.551100 -14.988700 20.535801
					CHANNELS 3 Xrotation Yrotation Zrotation
					JOINT RightToe_End
					{
						OFFSET -0.221200 0.570900 13.248299
						CHANNELS 3 Xrotation Yrotation Zrotation
						End Site
						{
							OFFSET 0.000000 13.262440 0.000000
						}
					}
				}
			}
		}
	}
}
MOTION
Frames: 4
Frame Time: 0.033333
0.210461 79.537170 1.895284 7.695163 8.614192 -1.294507 13.515780 1.125084 -2.788679 0.810345 0.480224 0.053358 0.808813 0.482558 0.052282 -2.824482 -1.217326 2.334802 -19.802371 -7.221190 -1.804543 -0.000000 0.000000 -0.000000 0.392831 -6.428958 -17.174376 -13.597470 1.832368 -62.399843 45.777973 -12.851133 13.625971 -5.349997 0.274093 30.186069 -0.213335 4.377768 -44.061902 1.622004 4.047172 -43.665157 1.622017 4.047177 -43.665194 -0.000001 -0.000000 0.000000 46.385300 -9.592017 30.230516 -1.712256 23.027995 -6.196386 -25.230131 -32.356573 21.696547 0.000001 0.000001 0.000000 0.619068 9.816041 17.946448 25.825300 49.377893 44.730704 -29.357987 19.549485 -6.226029 -2.049672 12.714810 -30.369319 6.161085 -3.581256 0.884137 0.099122 -6.535990 -0.165323 4.627660 -0.659761 0.442311 -0.000002 0.000000 -0.000002 -0.579691 -3.404211 43.373361 1.293074 -3.222419 43.719996 1.293051 -3.222446 43.720034 0.000000 0.000004 -0.000001 -15.933773 -3.784333 24.642030 19.012568 3.836106 7.132151 -6.056700 3.879303 -28.895511 -0.843433 1.605942 -2.258968 -0.000000 0.000000 0.000000 -15.842378 4.329562 -23.491013 20.615031 3.044289 -8.005158 -11.135192 -4.531947 24.430834 -0.597881 -2.310782 3.752679 -0.000000 0.000000 0.000000 
-0.011196 78.649178 2.320342 7.266200 9.298956 -1.614330 13.100287 1.324476 -2.859384 0.747327 0.536935 0.102656 0.745548 0.538727 0.101069 -3.205735 -1.259498 2.313079 -20.383030 -7.669835 -1.587821 -0.000000 -0.000000 -0.000000 0.381255 -6.077853 -17.329590 -13.298830 1.746200 -62.218433 49.248529 -11.922614 15.828822 -5.688943 -2.632978 23.953420 -0.332462 4.016605 -41.067223 1.710843 4.138037 -44.910044 1.710870 4.138036 -44.910109 -0.000001 0.000001 -0.000000 40.431598 -11.450261 33.397450 8.456808 16.847510 -12.477509 -26.342783 -28.914025 10.783830 0.000000 0.000000 -0.000001 0.408051 9.783086 19.041107 25.408574 48.303948 43.188444 -46.525930 10.538543 6.030848 -2.623462 12.506457 -28.284882 -0.155902 -0.175129 -0.583678 8.380114 -0.377265 5.948512 8.548941 1.914966 10.490689 -0.000000 -0.000001 -0.000001 -0.652675 -3.088016 40.376708 1.363854 -3.294720 44.964973 1.363816 -3.294739 44.964997 0.000000 -0.000000 0.000000 -16.460981 -5.859990 24.381383 22.472125 5.069500 8.846974 -7.776436 4.250938 -30.901480 -0.660938 1.802702 -2.340785 -0.000000 0.000004 0.000000 -15.732315 6.028658 -21.935897 24.586680 0.575661 -10.101363 -13.825082 -5.110536 25.862667 -0.804287 -3.407658 4.106786 0.000000 -0.000000 0.000000 
-0.151213 76.930832 2.538038 6.625200 10.110055 -1.707643 13.207029 1.304379 -2.757427 0.721262 0.530097 0.142198 0.719548 0.532024 0.139528 -3.740626 -1.275815 2.242215 -21.411246 -7.875897 -1.835259 0.000000 -0.000000 0.000000 0.408004 -6.194889 -17.122118 -15.038053 1.290260 -60.824877 49.876633 -12.874854 17.307114 -6.694335 -6.791320 18.816954 -0.846770 3.125558 -38.374421 1.695694 4.122803 -44.699497 1.695699 4.122794 -44.699551 0.000000 0.000003 -0.000000 36.753521 -20.746362 39.335838 9.820434 15.985025 -13.330239 -26.935244 -24.576011 -3.274946 -0.000000 0.000001 -0.000003 -0.079572 10.072815 21.266878 22.889263 46.831469 41.318721 -58.050884 0.058134 12.084186 0.340306 14.961890 -39.699839 -4.911589 10.428763 0.303856 9.437857 0.547168 6.834179 12.021683 6.841670 23.995102 -0.000003 0.000000 -0.000001 -1.120597 -2.234051 37.673677 1.351775 -3.282611 44.754418 1.351738 -3.282622 44.754429 0.000000 -0.000001 -0.000000 -18.179853 -8.614163 23.436973 28.698310 6.178639 11.326709 -10.765849 5.181431 -33.607235 -0.628749 2.578776 -2.816596 -0.000000 -0.000001 -0.000000 -16.527688 7.870613 -20.230095 30.780312 -1.951157 -13.318137 -17.613965 -6.258400 28.429703 -1.084419 -4.818392 4.552258 0.000000 -0.000000 -0.000000 
-0.178264 75.093666 2.668666 5.746553 11.027129 -1.505611 13.518605 0.937210 -2.397839 0.718204 0.416965 0.137451 0.716597 0.421238 0.136784 -4.244467 -1.291806 2.202528 -22.541643 -8.012588 -2.604310 0.000000 0.000000 0.000000 0.565395 -6.523681 -15.482072 -17.258206 1.039017 -58.168835 44.350078 -19.579012 17.707122 -7.774918 -11.613404 19.777170 -2.715248 -0.934246 -31.460487 1.547931 3.968302 -42.605371 1.547953 3.968311 -42.605381 0.000002 0.000001 0.000002 24.697626 -25.314479 38.784522 12.628761 14.180391 -15.087736 -27.523224 -25.256556 -5.090455 0.000002 -0.000001 -0.000001 -0.512694 9.985906 23.402812 17.059145 47.609349 39.489230 -65.563437 -8.078187 14.139633 4.137176 18.827580 -53.290089 -16.553003 13.355680 2.642558 11.631276 2.419841 8.675729 10.037081 9.150318 26.251730 -0.000001 -0.000000 -0.000001 -2.855820 1.729976 30.697872 1.234084 -3.159672 42.660050 1.234044 -3.159690 42.660088 -0.000001 -0.000000 -0.000001 -19.581121 -10.970457 21.727931 34.014585 6.726217 14.571056 -13.483786 6.295779 -36.478804 -0.804582 3.864525 -3.652389 -0.000000 0.000001 -0.000000 -16.800785 9.030261 -18.605907 35.989401 -4.354889 -17.219160 -20.946385 -7.647934 31.612410 -1.456961 -6.337278 5.119881 -0.000000 -0.000000 -0.000000 
